<svg xmlns="http://www.w3.org/2000/svg" width="346.348" height="302.679" viewBox="0 0 346.348 302.679">
  <g id="Component_4_4" data-name="Component 4 – 4" transform="translate(0 1.016)">
    <path id="Path_4" data-name="Path 4" d="M596.248,258.242c21.676,9.138,201.974,21.48,174.282-110.231S619.85-9.733,586.722,29.249s-76.368,89.893-69.692,129.119S574.572,249.1,596.248,258.242Z" transform="matrix(0.985, -0.174, 0.174, 0.985, -510.7, 131.881)" fill="#738a98"/>
    <path id="Path_3" data-name="Path 3" d="M597.191,277.111c21.932,9.84,204.358,23.13,176.339-118.7S621.072-11.455,587.553,30.521s-77.269,96.8-70.514,139.041S575.259,267.271,597.191,277.111Z" transform="translate(-489.945 -12.684)" fill="none" stroke="#ba7b64" stroke-width="2"/>
    <path id="Path_37" data-name="Path 37" d="M199.944,1606.54c17.52-6.017,34.449-10.96,61.5-10.951s35.459,9.031,61.5,8.35,46.684-6.262,64.192-8.35" transform="translate(-51.898 -1474.639)" fill="none" stroke="#9a8e67" stroke-linecap="round" stroke-linejoin="round" stroke-width="20"/>
    <g id="Component_2_7" data-name="Component 2 – 7" transform="translate(175.055 97.316)">
      <text id="re:mind" transform="translate(0 38)" fill="#c9c4c4" font-size="38" font-family="Avenir-Heavy, Avenir" font-weight="800"><tspan x="0" y="0">re:mind</tspan></text>
    </g>
  </g>
</svg>
