<svg xmlns="http://www.w3.org/2000/svg" width="983.318" height="792.8" viewBox="0 0 983.318 792.8">
  <g id="Component_5_1" data-name="Component 5 – 1" transform="translate(1.181)">
    <path id="Path_44" data-name="Path 44" d="M199.944,1606.54c17.52-6.017,34.449-10.96,61.5-10.951s35.459,9.031,61.5,8.35,46.684-6.262,64.192-8.35" transform="translate(242.72 -1342.709)" fill="none" stroke="#9a8e67" stroke-linecap="round" stroke-linejoin="round" stroke-width="20"/>
    <path id="Path_4" data-name="Path 4" d="M596.248,258.242c21.676,9.138,201.974,21.48,174.282-110.231S619.85-9.733,586.722,29.249s-76.368,89.893-69.692,129.119S574.572,249.1,596.248,258.242Z" transform="matrix(0.985, -0.174, 0.174, 0.985, 173.918, 121.81)" fill="#738a98"/>
    <path id="Path_2" data-name="Path 2" d="M-63.2,636.043s176.8-194.262,264.139-184.165S327.851,589.395,384.882,578.2s148.255,35.076,242.53,57.839,154.808,24.4,154.808,24.4v12.5L-63.2,678.634V636.043Z" transform="translate(99.672 107.104)" fill="#ba7b64"/>
    <path id="Path_1" data-name="Path 1" d="M-5.859,644.825S117.424,441.319,207.571,451.9,359.445,586.732,418.307,575.009s118.162,38.606,215.463,62.452,173.74,32.931,173.74,32.931v13.092L-5.859,690.546V644.825Z" transform="translate(52.672 101.245)" fill="none" stroke="#484545" stroke-width="2"/>
    <path id="Path_3" data-name="Path 3" d="M597.191,277.111c21.932,9.84,204.358,23.13,176.339-118.7S621.072-11.455,587.553,30.521s-77.269,96.8-70.514,139.041S575.259,267.271,597.191,277.111Z" transform="translate(204.672 50.245)" fill="none" stroke="#ba7b64" stroke-width="2"/>
    <path id="Path_5" data-name="Path 5" d="M-14.084,173.977S87.987,77.585,170.295,117.451,287.44,193.667,320.664,255.618s5.223,100.667-17.473,109.638-162.61,71.287-230.535-25.219S-26.672,238.992-26.672,238.992Z" transform="translate(26.672 257.245)" fill="none" stroke="#9cb5c3" stroke-width="2"/>
    <g id="Component_2_1" data-name="Component 2 – 1" transform="translate(454.672 226.245)">
      <text id="re:mind" transform="translate(0 45)" fill="#c9c4c4" font-size="45" font-family="Avenir-Heavy, Avenir" font-weight="800"><tspan x="0" y="0">re:mind</tspan></text>
    </g>
  </g>
</svg>
